/* XPM */
static char * back [] = {
"32 32 7 1",
" 	s None	c None",
".	c black",
"X	c white",
"o	c gray",
"O	c gray30",
"+	c gray50",
"@	c grey75",
"............................... ",
".XXXXXXXXXXXXXXXXXXXXXXXXXXXXX. ",
".XoooooooooooooooooooooooooooO. ",
".XoooooooooooooooooooooooooooO. ",
".Xooooooooooooo.oooooooooooooO. ",
".Xoooooooooooo.+.ooooooooooooO. ",
".Xoooooooooooo.+.ooooooooooooO. ",
".Xooooooooooo.+++.oooooooooooO. ",
".Xooooooooooo.+++.oooooooooooO. ",
".Xoooooooooo.+++++.ooooooooooO. ",
".Xoooooooooo.+++++.ooooooooooO. ",
".Xooooooooo.+++++++.oooooooooO. ",
".Xooooooooo.+++++++.oooooooooO. ",
".Xoooooooo.+++++++++.ooooooooO. ",
".Xoooooooo.+++++++++.ooooooooO. ",
".Xooooooo.+++++++++++.oooooooO. ",
".Xooooooo.+++++++++++.oooooooO. ",
".Xoooooo.+++++++++++++.ooooooO. ",
".Xoooooo.+++++++++++++.ooooooO. ",
".Xooooooo.............oooooooO. ",
".XoooooooooooooooooooooooooooO. ",
".XoooooooooooooooooooooooooooO. ",
".Xoooo...+oo+.+oo+..o.oo.ooooO. ",
".Xoooo.oo.oo.o.oo.ooo.o.oooooO. ",
".Xoooo...ooo.o.oo.ooo..ooooooO. ",
".Xoooo.oo.o+...+o.ooo..ooooooO. ",
".Xoooo.oo.o.+o+.o.ooo.@.oooooO. ",
".Xoooo...+o.ooo.o+..o.oo.ooooO. ",
".XoooooooooooooooooooooooooooO. ",
".XOOOOOOOOOOOOOOOOOOOOOOOOOOOO. ",
"............................... ",
"                                "};
