#define bullet_width 7
#define bullet_height 7
static char bullet_bits[] = {
   0x1c, 0x3e, 0x5f, 0x3f, 0x5d, 0x2a, 0x14};
