/* XPM */
static char * clone [] = {
"32 32 5 1",
" 	s None	c None",
".	c black",
"X	c white",
"o	c gray",
"O	c gray30",
"............................... ",
".XXXXXXXXXXXXXXXXXXXXXXXXXXXXX. ",
".XoooooooooooooooooooooooooooO. ",
".Xooo..........ooooooooooooooO. ",
".Xooo.XXXXXXX.X.oooooooooooooO. ",
".Xooo.X....XX.XX.ooooooooooooO. ",
".Xooo.XXXXXXX.XXX.oooooooooooO. ",
".Xooo.X.....X.....oooooooooooO. ",
".Xooo.XXXXXXXXXXX.oooooooooooO. ",
".Xooo.X......X.........ooooooO. ",
".Xooo.XXXXXXXX.XXXXXX.X.oooooO. ",
".Xooo.X......X.X...XX.XX.ooooO. ",
".Xooo.XXXXXXXX.XXXXXX.XXX.oooO. ",
".Xooo.X......X.X....X.....oooO. ",
".Xooo.XXXXXXXX.XXXXXXXXXX.oooO. ",
".Xooo.XXXXXXXX.X........X.oooO. ",
".Xooo..........XXXXXXXXXX.oooO. ",
".Xoooooooooooo.X........X.oooO. ",
".Xoooooooooooo.XXXXXXXXXX.oooO. ",
".Xoooooooooooo.XXXXXXXXXX.oooO. ",
".Xoooooooooooo............oooO. ",
".XoooooooooooooooooooooooooooO. ",
".Xooooo..o.oo...o.Oo.o...ooooO. ",
".Xoooo.Ooo.oo.o.o..o.o.ooooooO. ",
".Xoooo.ooo.oo.o.o.o..o..oooooO. ",
".Xoooo.ooo.oo.o.o.oO.o.ooooooO. ",
".Xoooo.Ooo.oo.o.o.oo.o.ooooooO. ",
".Xooooo..o..o...o.oo.o...ooooO. ",
".XoooooooooooooooooooooooooooO. ",
".XOOOOOOOOOOOOOOOOOOOOOOOOOOOO. ",
"............................... ",
"                                "};
