/* XPM */
static char * downArrowButton [] = {
"20 20 4 1",
" 	c gray50",
".	c white",
"X	c black",
"o	c grey75",
"                    ",
" .................X ",
" ..ooooooooooooooXX ",
"  ..oooooooooooooX  ",
"  ..ooooooooooooXX  ",
"   ..oooooooooooX   ",
"   ..ooooooooooXX   ",
"    ..oooooooooX    ",
"    ..ooooooooXX    ",
"     ..oooooooX     ",
"     ..ooooooXX     ",
"      ..oooooX      ",
"      ..ooooXX      ",
"       ..oooX       ",
"       ..ooXX       ",
"        ..oX        ",
"        ..XX        ",
"         .X         ",
"         .X         ",
"                    "};
