/* XPM */
static char * home [] = {
"32 32 9 1",
" 	c black",
".	c white",
"X	c grey75",
"o	c gray30",
"O	c red",
"+	c #E0E0D0D0B0B0",
"@	c lightyellow",
"#	c gray",
"$	c gray50",
"                                ",
" .............................  ",
" .XXXXXXXXXXXXXXXXXXXXXXXXXXXo  ",
" .XXXXXXXXXXXXXXXXXXXXXXXXXXXo  ",
" .XXXXXXXXXX       XXXXXXXXXXo  ",
" .XXXXXXXXX OOOOOOO XXXXXXXXXo  ",
" .XXXXXXXX O+@OOOOOO XXXXXXXXo  ",
" .XXXXXXXX O+@@OOOOOO XXXXXXXo  ",
" .XXXXXXX O+@@@OOOOOOO XXXXXXo  ",
" .XXXXXX O+@@@@@OOOOOOO XXXXXo  ",
" .XXXXX O+@@@@@@@OOOOOOO XXXXo  ",
" .XXXXX O+@@@@@@@@OOOOOOO XXXo  ",
" .XXXX O+@@@@@@@@@OOOOOOOO XXo  ",
" .XXX O+@@@#####@@@OOOO++ XXXo  ",
" .XXXX  @@@#   #@@@@+++++ XXXo  ",
" .XXXXX @@@#   #@@@@+++++ XXXo  ",
" .XXXXX @@@#   #@@@@+++++ XXXo  ",
" .XXXXX @@@#   #@@@@+++++ XXXo  ",
" .XXXXX @@@#   #@@@@++++  XXXo  ",
" .XXXXX @@@#   #@@@@++  XXXXXo  ",
" .XXXXXX              XXXXXXXo  ",
" .XXXXXXXXXXXXXXXXXXXXXXXXXXXo  ",
" .XXXX XX X$  $X XXX X   XXXXo  ",
" .XXXX XX X XX X  X  X XXXXXXo  ",
" .XXXX    X XX X $ $ X  XXXXXo  ",
" .XXXX XX X XX X X X X XXXXXXo  ",
" .XXXX XX X XX X XXX X XXXXXXo  ",
" .XXXX XX X$  $X XXX X   XXXXo  ",
" .XXXXXXXXXXXXXXXXXXXXXXXXXXXo  ",
" .oooooooooooooooooooooooooooo  ",
"                                ",
"                                "};
