/* XPM */
static char * next [] = {
"32 32 6 1",
" 	s None	c None",
".	c black",
"X	c white",
"o	c grey75",
"O	c gray30",
"+	c gray50",
"............................... ",
".XXXXXXXXXXXXXXXXXXXXXXXXXXXXX. ",
".XoooooooooooooooooooooooooooO. ",
".XoooooooooooooooooooooooooooO. ",
".XoooooooooooooooooooooooooooO. ",
".Xoooooooo..oooooooooooooooooO. ",
".Xooooooo.++..oooooooooooooooO. ",
".Xooooooo.++++..oooooooooooooO. ",
".Xooooooo.++++++..oooooooooooO. ",
".Xooooooo.++++++++..oooooooooO. ",
".Xooooooo.++++++++++..oooooooO. ",
".Xooooooo.++++++++++++..oooooO. ",
".Xooooooo.++++++++++++++.ooooO. ",
".Xooooooo.++++++++++++..oooooO. ",
".Xooooooo.++++++++++..oooooooO. ",
".Xooooooo.++++++++..oooooooooO. ",
".Xooooooo.++++++..oooooooooooO. ",
".Xooooooo.++++..oooooooooooooO. ",
".Xooooooo.++..oooooooooooooooO. ",
".Xoooooooo..oooooooooooooooooO. ",
".XoooooooooooooooooooooooooooO. ",
".XoooooooooooooooooooooooooooO. ",
".Xooo.+oo.o...o.ooo.o.....oooO. ",
".Xooo..+o.o.ooo+.o.+ooo.oooooO. ",
".Xooo.o.+.o..+oo+.+oooo.oooooO. ",
".Xooo.oo..o.oooo+.+oooo.oooooO. ",
".Xooo.ooo.o.ooo+.o.+ooo.oooooO. ",
".Xooo.ooo.o...o.ooo.ooo.oooooO. ",
".XoooooooooooooooooooooooooooO. ",
".XOOOOOOOOOOOOOOOOOOOOOOOOOOOO. ",
"............................... ",
"                                "};
