/* XPM */
static char * prev [] = {
"32 32 6 1",
" 	s None	c None",
".	c black",
"X	c white",
"o	c grey75",
"O	c gray30",
"+	c gray50",
"............................... ",
".XXXXXXXXXXXXXXXXXXXXXXXXXXXXX. ",
".XoooooooooooooooooooooooooooO. ",
".XoooooooooooooooooooooooooooO. ",
".XoooooooooooooooooooooooooooO. ",
".Xoooooooooooooooooo..oooooooO. ",
".Xoooooooooooooooo..++.ooooooO. ",
".Xoooooooooooooo..++++.ooooooO. ",
".Xoooooooooooo..++++++.ooooooO. ",
".Xoooooooooo..++++++++.ooooooO. ",
".Xoooooooo..++++++++++.ooooooO. ",
".Xooooooo.++++++++++++.ooooooO. ",
".Xooooo.++++++++++++++.ooooooO. ",
".Xoooooo..++++++++++++.ooooooO. ",
".Xoooooooo..++++++++++.ooooooO. ",
".Xoooooooooo..++++++++.ooooooO. ",
".Xoooooooooooo..++++++.ooooooO. ",
".Xoooooooooooooo..++++.ooooooO. ",
".Xoooooooooooooooo..++.ooooooO. ",
".Xoooooooooooooooooo..oooooooO. ",
".XoooooooooooooooooooooooooooO. ",
".XoooooooooooooooooooooooooooO. ",
".Xoooo...+o...+o...o.ooo.ooooO. ",
".Xoooo.oo.o.oo.o.ooo.ooo.ooooO. ",
".Xoooo.oo.o...+o..oo.+o+.ooooO. ",
".Xoooo...+o.o.oo.oooo.o.oooooO. ",
".Xoooo.oooo.oo.o.oooo.+.oooooO. ",
".Xoooo.oooo.oo.o...ooo.ooooooO. ",
".XoooooooooooooooooooooooooooO. ",
".XOOOOOOOOOOOOOOOOOOOOOOOOOOOO. ",
"............................... ",
"                                "};
