/* XPM */
static char * reload [] = {
"32 32 6 1",
" 	s None	c None",
".	c black",
"X	c white",
"o	c gray",
"O	c gray30",
"+	c red",
"............................... ",
".XXXXXXXXXXXXXXXXXXXXXXXXXXXXX. ",
".XoooooooooooooooooooooooooooO. ",
".XoooooooooooooooooooooooooooO. ",
".Xooooooo...........oooooooooO. ",
".Xooooooo.XXXXXXXX.X.ooooooooO. ",
".Xoooo+++.X......X.XX.oooooooO. ",
".Xoooo+++.XXXXXXXX.XXX.ooooooO. ",
".Xoooo+...X......X.....ooooooO. ",
".Xoooo+++.XXXXXXXXXXXX.ooooooO. ",
".Xoooo+...X.........XX.ooooooO. ",
".Xoooo+++.XXXXXXXXXXXX.ooooooO. ",
".Xoooo+...X.........XX.ooooooO. ",
".Xoooo+++.XXXXXXXXXXXX.ooooooO. ",
".Xoooo+...X.........XX.ooooooO. ",
".Xoooo+++.XXXXXXXXXXXX.ooooooO. ",
".Xoooo+................ooooooO. ",
".Xoooo++++++++++++++oooooooooO. ",
".Xoooo+...........++oooooooooO. ",
".Xoooo++++++++++++++oooooooooO. ",
".XoooooooooooooooooooooooooooO. ",
".XoooooooooooooooooooooooooooO. ",
".Xoo...Oo...o.ooO.OoO.Oo..oooO. ",
".Xoo.oo.o.ooo.oo.o.o.O.o.o.ooO. ",
".Xoo...Oo..oo.oo.o.o.o.o.o.ooO. ",
".Xoo.o.oo.ooo.oo.o.o...o.o.ooO. ",
".Xoo.oo.o.ooo.oo.o.o.o.o.o.ooO. ",
".Xoo.oo.o...o..oO.Oo.o.o..oooO. ",
".XoooooooooooooooooooooooooooO. ",
".XOOOOOOOOOOOOOOOOOOOOOOOOOOOO. ",
"............................... ",
"                                "};
