/* XPM */
static char * upArrowButton [] = {
"20 20 4 1",
" 	c gray50",
".	c white",
"X	c black",
"o	c grey75",
"                    ",
"         .X         ",
"         .X         ",
"        ..XX        ",
"        ..oX        ",
"       ..ooXX       ",
"       ..oooX       ",
"      ..ooooXX      ",
"      ..oooooX      ",
"     ..ooooooXX     ",
"     ..oooooooX     ",
"    ..ooooooooXX    ",
"    ..oooooooooX    ",
"   ..ooooooooooXX   ",
"   ..oooooooooooX   ",
"  ..ooooooooooooXX  ",
"  ..oooooooooooooX  ",
" ..ooooooooooooooXX ",
" .XXXXXXXXXXXXXXXXX ",
"                    "};
