#define violaIcon_width 32
#define violaIcon_height 32
static char violaIcon_bits[] = {
   0x00, 0x00, 0x00, 0x00, 0x00, 0x00, 0x00, 0x00, 0x00, 0x00, 0x00, 0x00,
   0x00, 0x00, 0x00, 0x00, 0x00, 0x00, 0x00, 0x00, 0xf0, 0x07, 0x00, 0x00,
   0x38, 0x0c, 0x1e, 0x00, 0x0c, 0x18, 0x73, 0x00, 0x06, 0xf0, 0xc1, 0x00,
   0x02, 0x60, 0xc0, 0x00, 0x03, 0x00, 0x80, 0x01, 0x01, 0x00, 0x80, 0x51,
   0x01, 0x00, 0x80, 0x51, 0x01, 0x20, 0xe9, 0xff, 0xc1, 0x03, 0x00, 0x50,
   0xc1, 0x03, 0x00, 0x50, 0x81, 0x03, 0x01, 0x50, 0x82, 0x03, 0x01, 0x00,
   0x06, 0x07, 0x01, 0x00, 0x0c, 0x87, 0x00, 0x01, 0x7c, 0x86, 0x02, 0x1d,
   0x78, 0x8e, 0x00, 0x21, 0x70, 0x4c, 0x32, 0x21, 0x00, 0x48, 0x4a, 0x39,
   0x00, 0x58, 0x4a, 0x25, 0x00, 0x70, 0x4a, 0x25, 0x00, 0x30, 0x32, 0x79,
   0x00, 0x20, 0x00, 0x00, 0x00, 0x00, 0x00, 0x00, 0x00, 0x00, 0x00, 0x00,
   0x00, 0x00, 0x00, 0x00, 0x00, 0x00, 0x00, 0x00};
