/* XPM */
static char * viola [] = {
"32 32 7 1",
" 	s None	c None",
".	c black",
"X	c gray20",
"o	c white",
"O	c gray",
"+	c red",
"@	c maroon",
"       .XoO.                    ",
"        XoO                     ",
"        XoO                     ",
"        XoO                     ",
"      ++XoO++++                 ",
"    ++@@XoO@@++++               ",
"   ++@@@XoO@@@@@++              ",
"  +@@@+@XoO@+@@@++              ",
"  +@@@@@XoO@@@@@+@+             ",
"  +@@@+@XoO@@+@@@++             ",
" @++@+@@XoO@@@@+@++             ",
" @@@@@@@XoO@@+@@@++             ",
"   @@@@@XoO@@@@@++@             ",
"    @..@XoO@@@@+@               ",
"    @@.@XoO@+..@+               ",
"    @@.@XoO@.@@@@               ",
"   @@@.@XoO@.@@@@               ",
" +@@@@.@XoO@.@@@@@+             ",
" +@@@@.@@o@@.@+@@@+             ",
"  +@@.@@@o@@+.+@@+              ",
"  @@..@@+o@@@.@@@@              ",
"  @@.@@@@o@@@..@@@@             ",
" @+@..@@@o@....+@@@             ",
" @@@@@@+@o@@@@+@+@+             ",
" @+@@@@@@o@@@@@@@@+             ",
" @@@@@@@+o@+@@@@@@@             ",
"  +@@+@@@o@@@@@@@+              ",
"  @@@@@@@o@@@@@+@@              ",
"  @@++@@@o@@+@@@@               ",
"   @@@@@XO@@@@@@                ",
"     @@@XO@@@@                  ",
"         O                      "};
