#define violaIcon2_width 36
#define violaIcon2_height 30
static char violaIcon2_bits[] = {
   0x00, 0x00, 0x00, 0x00, 0x00, 0x00, 0x00, 0x00, 0x00, 0x00, 0x00, 0x00,
   0x00, 0x00, 0x00, 0x00, 0x00, 0x00, 0x00, 0x00, 0xc0, 0x1f, 0x00, 0x00,
   0x00, 0xe0, 0x30, 0x78, 0x00, 0x00, 0x30, 0x60, 0xcc, 0x01, 0x00, 0x18,
   0xc0, 0x07, 0x03, 0x00, 0x08, 0x80, 0x01, 0x03, 0x00, 0x0c, 0x00, 0x00,
   0x06, 0x00, 0x04, 0x00, 0x00, 0x46, 0x01, 0x04, 0x00, 0x00, 0x46, 0x01,
   0x04, 0x80, 0xa4, 0xff, 0x03, 0x04, 0x0f, 0x00, 0x40, 0x01, 0x04, 0x0f,
   0x00, 0x40, 0x01, 0x04, 0x0e, 0x04, 0x40, 0x01, 0x08, 0x0e, 0x04, 0x00,
   0x00, 0x18, 0x1c, 0x04, 0x00, 0x00, 0x30, 0x1c, 0x02, 0x04, 0x00, 0xf0,
   0x19, 0x0a, 0x74, 0x00, 0xe0, 0x39, 0x02, 0x84, 0x00, 0xc0, 0x31, 0xc9,
   0x84, 0x00, 0x00, 0x20, 0x29, 0xe5, 0x00, 0x00, 0x60, 0x29, 0x95, 0x00,
   0x00, 0xc0, 0x29, 0x95, 0x00, 0x00, 0xc0, 0xc8, 0xe4, 0x01, 0x00, 0x80,
   0x00, 0x00, 0x00, 0x00, 0x00, 0x00, 0x00, 0x00, 0x00, 0x00, 0x00, 0x00,
   0x00, 0x00, 0x00, 0x00, 0x00, 0x00};
