/* XPM */
static char * plaid[] = {
/* plaid pixmap 
 * width height ncolors chars_per_pixel */
"16 16 5 1 ",
/* colors */
"   c black 	m black",
".  c white 	m white",
"0  c grey30	m grey40",
"1  c grey60	m grey80",
"x  c yellow	m yellow",
/* pixels */
"1000000000000001",
"1111111111111110",
"1000000000000010",
"1000000000000010",
"100000000000xx10",
"10000000000xx010",
"1000000000xx0010",
"100000000xx00010",
"10xx0000xx000010",
"100xx00xx0000010",
"1000xxxx00000010",
"10000xx000000010",
"1000000000000010",
"1000000000000010",
"1111111111111110",
"0000000000000001",
} ;
