/* XPM */
static char * plaid[] = {
/* plaid pixmap 
 * width height ncolors chars_per_pixel */
"16 16 5 1 ",
/* colors */
"   c black 	m black",
".  c white 	m white",
"0  c grey30	m grey40",
"1  c grey60	m grey80",
"x  c red	m red",
/* pixels */
"1000000000000001",
"1111111111111110",
"1000000000000010",
"1000000000000010",
"1000000000000010",
"1000000000000010",
"1000000000000010",
"1000000000000010",
"1000000000000010",
"1000000000000010",
"1000000000000010",
"1000000000000010",
"1000000000000010",
"1000000000000010",
"1111111111111110",
"0000000000000001",
} ;
